<svg width="34" height="29" viewBox="0 0 34 29" fill="none" xmlns="http://www.w3.org/2000/svg">
<path d="M9 5.5V6.25C9.24277 6.25 9.47053 6.13249 9.61122 5.93464L9 5.5ZM11.25 2.3359L10.6388 1.90126V1.90126L11.25 2.3359ZM22.75 2.3359L23.3612 1.90126L22.75 2.3359ZM25 5.5L24.3888 5.93464C24.5295 6.13249 24.7572 6.25 25 6.25V5.5ZM21.05 16.75C21.05 18.7762 19.2831 20.5 17 20.5V22C20.0188 22 22.55 19.6944 22.55 16.75H21.05ZM17 20.5C14.7169 20.5 12.95 18.7762 12.95 16.75H11.45C11.45 19.6944 13.9812 22 17 22V20.5ZM12.95 16.75C12.95 14.7238 14.7169 13 17 13V11.5C13.9812 11.5 11.45 13.8056 11.45 16.75H12.95ZM17 13C19.2831 13 21.05 14.7238 21.05 16.75H22.55C22.55 13.8056 20.0188 11.5 17 11.5V13ZM9.61122 5.93464L11.8612 2.77054L10.6388 1.90126L8.38878 5.06536L9.61122 5.93464ZM13.9126 1.75H20.0874V0.25H13.9126V1.75ZM22.1388 2.77054L24.3888 5.93464L25.6112 5.06536L23.3612 1.90126L22.1388 2.77054ZM20.0874 1.75C20.9274 1.75 21.6932 2.14403 22.1388 2.77054L23.3612 1.90126C22.6197 0.858572 21.3873 0.25 20.0874 0.25V1.75ZM11.8612 2.77054C12.3068 2.14403 13.0726 1.75 13.9126 1.75V0.25C12.6127 0.25 11.3803 0.858571 10.6388 1.90126L11.8612 2.77054ZM32.25 11.5V22H33.75V11.5H32.25ZM26.6 27.25H7.4V28.75H26.6V27.25ZM1.75 22V11.5H0.25V22H1.75ZM7.4 27.25C4.23326 27.25 1.75 24.8546 1.75 22H0.25C0.25 25.7728 3.4975 28.75 7.4 28.75V27.25ZM32.25 22C32.25 24.8546 29.7667 27.25 26.6 27.25V28.75C30.5025 28.75 33.75 25.7728 33.75 22H32.25ZM26.6 6.25C29.7667 6.25 32.25 8.64537 32.25 11.5H33.75C33.75 7.72722 30.5025 4.75 26.6 4.75V6.25ZM7.4 4.75C3.4975 4.75 0.25 7.72722 0.25 11.5H1.75C1.75 8.64537 4.23326 6.25 7.4 6.25V4.75ZM7.4 6.25H9V4.75H7.4V6.25ZM26.6 4.75H25V6.25H26.6V4.75Z" fill="white"/>
</svg>
